<svg xmlns="http://www.w3.org/2000/svg" width="1749" height="869" viewBox="0 0 1749 869">
  <defs>
    <linearGradient id="bg" x1="0%" x2="100%" y1="50%" y2="50%">
      <stop offset="0%" stop-color="#f2f2f2"/>
      <stop offset="100%" stop-color="#6f6f6f"/>
    </linearGradient>

    <linearGradient id="layer1" x1="0%" x2="80%" y1="20%" y2="80%">
      <stop offset="0%" stop-color="#9a9a9a"/>
      <stop offset="100%" stop-color="#3f3f3f"/>
    </linearGradient>

    <linearGradient id="layer2" x1="10%" x2="90%" y1="10%" y2="90%">
      <stop offset="0%" stop-color="#cfcfcf"/>
      <stop offset="100%" stop-color="#8a8a8a"/>
    </linearGradient>

    <radialGradient id="highlight" cx="30%" cy="110%" r="120%">
      <stop offset="0%" stop-color="#ffffff" stop-opacity="0"/>
      <stop offset="80%" stop-color="#ffffff" stop-opacity="0"/>
      <stop offset="100%" stop-color="#ffffff" stop-opacity="0.25"/>
    </radialGradient>
  </defs>

  <!-- fond -->
  <rect width="1749" height="869" fill="url(#bg)"/>

  <!-- spline principale (plus tendue) -->
  <path
    d="M0,120
       C260,40 520,20 780,130
       C1080,260 1350,520 1550,820
       L1749,869 L0,869 Z"
    fill="url(#layer1)"/>

  <!-- deuxième spline (plus anguleuse) -->
  <path
    d="M0,260
       C220,200 420,240 640,360
       C900,520 1180,640 1749,720
       L1749,869 L0,869 Z"
    fill="url(#layer2)"/>

  <!-- effet de lumière -->
  <path
    d="M0,260
       C220,200 420,240 640,360
       C900,520 1180,640 1749,720
       L1749,869 L0,869 Z"
    fill="url(#highlight)"/>
</svg>
